<?xml version="1.0" encoding="UTF-8"?>
<svg width="600" height="180" version="1.1" xmlns="http://www.w3.org/2000/svg">
 <path d="m167.67 90.01-78.83-78.841-27.448 38.817-51.39 40.018 49.734 33.084 29.104 45.752z" fill="#90002b"/>
 <path d="m88.84 11.17-6e-3 78.83 78.835 6e-3z" fill="#a70236"/>
 <path d="m10 90h78.83l6e-3 -78.835z" fill="#d31048"/>
 <path d="m88.84 168.84-6e-3 -78.835h-78.83z" fill="#a70236"/>
 <path d="m94.47 36.5-5.6473 5.0788-5.6148-5.0788 5.6306 5.6312zm5.6321 5.6329-11.269 10.144-11.255-10.144 11.269 11.262zm5.6321 5.63-16.907 14.122-16.879-14.122 16.879 16.893zm5.6321 5.6303-22.539 20.382-22.51-20.382 22.519 25.34zm11.262 14.078-22.524 22.554 22.524 22.495-18.1-22.495zm-11.264 22.516 16.893 16.904-14.084-16.893 14.084-16.894zm14.076 0.0399 11.257 11.232-10.125-11.267 10.13-11.258zm11.266-9e-3 5.6312 5.6071-5.0791-5.6071 5.0791-5.655zm-59.13-0.0531-22.524-22.495 18.077 22.529-18.073 22.519zm-11.261 1e-3 -16.893-16.864 14.075 16.893-14.075 16.893zm-11.261-2e-3 -11.262-11.231 10.144 11.293-10.144 11.232zm-11.261-6e-3 -5.6311-5.5956 5.0755 5.6433-5.0755 5.6188zm73.2 28.192-24.189-28.186 24.189-28.124-28.17 24.172-28.14-24.172 24.16 28.158-24.16 28.153 28.14-24.22zm-22.522 22.523-5.6498-5.6309-5.6122 5.6309 5.6122-5.071zm5.6321-5.6292-11.272-11.262-11.253 11.262 11.253-10.148zm5.6321-5.6321-16.907-16.893-16.879 16.893 16.879-14.14zm5.6321-5.6315-22.539-25.34-22.51 25.34 22.51-20.387z" fill="#fffffe"/>
 <path d="m590 79.32c0-9.1946-7.152-13.207-12.894-16.424-4.2436-2.3828-7.9043-4.438-7.9043-7.8144 0-2.7066 2.6788-4.5973 6.5233-4.5973 3.7067 0 7.2439 1.574 10.529 4.6872l1.8404 1.7325v-10.893l-0.47948-0.31813c-3.5057-2.3133-7.4248-3.5545-11.318-3.5545-9.5408 0-15.694 5.4472-15.694 13.843 0 7.6401 6.3912 11.473 12.016 14.855 4.7144 2.8246 8.7829 5.2829 8.7829 9.2638 0 1.9122-1.8232 4.9358-6.7329 4.9358-4.3785 0-8.4642-2.2653-11.835-6.529l-1.9524-2.4718v12.376l0.43929 0.33736c4.2263 3.1436 8.7111 4.6274 14.126 4.6274 8.4297 0 14.554-5.9235 14.554-14.056zm-33.555 13.422v-8.3464h-21.706v-41.615h-9.1016v49.962zm-37.362 0v-8.3464h-21.717v-41.615h-9.093v49.962zm-52.516 0h9.0901v-49.962h-9.0901zm-45.195 0v-20.813h24.746v20.813h9.1016v-49.962h-9.1016v20.807h-24.746v-20.807h-9.1016v49.962zm-41.732 0h9.0901v-49.962h-8.0249l-15.481 18.97-15.407-18.97h-8.1139v49.962h9.1102v-35.36l13.314 16.652h2.1936l13.319-16.652zm-66.114-8.3464v-41.615h-9.1016v49.962h30.813v-8.3464zm-38.632-27.547 6.0136 13.474h-11.618zm-15.255 35.891 6.0636-14.091h19.021l6.413 14.091h9.4404l-22.471-50.245h-6.3048l-21.592 50.245zm-22.643-29.013h-6.7389v-12.601h7.0182c6.1592 0 7.0786 3.8881 7.0786 6.2072 0 4.0612-2.6828 6.3941-7.3579 6.3941zm0.27936-20.946h-16.109v49.962h9.0906v-20.669h6.0943c12.767 0 17.317-7.4768 17.317-14.463 0-7.1747-4.3102-14.83-16.393-14.83z" fill="#2c2a26"/>
 <path d="m583.95 123.54c-1.9696-1.1123-3.6665-2.0707-3.6665-3.624 0-1.2366 1.2346-2.1051 3.0118-2.1051 1.717 0 3.3621 0.72381 4.8982 2.1735l0.91877 0.86364v-5.1968l-0.23831-0.15446c-1.648-1.0827-3.4798-1.6638-5.3145-1.6638-4.4101 0-7.3731 2.6174-7.3731 6.5055 0 3.5927 3.0032 5.3906 5.6361 6.9792 2.1964 1.3164 4.0943 2.4629 4.0943 4.2998 0 0.88431-0.84986 2.2645-3.1181 2.2645-2.0069 0-3.9536-1.077-5.5011-3.0245l-0.97045-1.2558v5.9235l0.20959 0.16423c1.9725 1.4838 4.0713 2.1746 6.6238 2.1746 3.9679 0 6.842-2.7859 6.842-6.6183 0-4.3096-3.3449-6.1868-6.0524-7.7056zm-40.188-9.4042v3.9722h7.7837v19.451h4.3268v-19.451h7.7808v-3.9722zm-19.242 0v16.384l-14.451-16.384h-3.3564v23.423h4.123v-16.284l14.244 16.284h3.5574v-23.423zm-43.779 19.464v-5.8681h9.1934v-3.9625h-9.1934v-5.6593h9.5179v-3.9714h-13.85v23.423h14.152v-3.9622zm-23.21-19.464-7.2066 8.8521-7.2123-8.8521h-3.8301v23.423h4.3211v-16.464l6.1816 7.7263h1.0537l6.1845-7.7263v16.464h4.3153v-23.423zm-39.593 9.7949h-3.1066v-5.8227h3.2444c2.8568 0 3.276 1.787 3.276 2.849 0 1.893-1.2461 2.9736-3.4138 2.9736zm0.13781-9.7949h-7.5798v23.424h4.3354v-9.6563h2.808c5.995 0 8.1311-3.5163 8.1311-6.8078 0-3.3765-2.027-6.9602-7.6947-6.9602zm-34.121 19.696c-4.7432 0-8.1857-3.3618-8.1857-7.9786 0-4.6277 3.4425-7.9749 8.1857-7.9749 4.7661 0 8.223 3.3472 8.223 7.9749 0 4.6168-3.4569 7.9786-8.223 7.9786zm0-19.999c-7.1922 0-12.604 5.1586-12.604 12.02 0 6.8468 5.392 12.009 12.544 12.009 8.3436 0 12.713-6.0518 12.713-12.009 0-6.9654-5.3289-12.02-12.653-12.02zm-34.684 19.767v-19.461h-4.3354v23.423h14.482v-3.9622zm-28.993 0v-5.8681h9.2049v-3.9625h-9.2049v-5.6593h9.5294v-3.9714h-13.85v23.423h14.149v-3.9622zm-20.359-19.464-6.353 14.85-6.3992-14.85h-4.4253l10.195 23.638h1.3885l9.9784-23.638zm-37.792 19.464v-5.8681h9.202v-3.9625h-9.202v-5.6593h9.5305v-3.9714h-13.865v23.423h14.16v-3.9622zm-23.595-7.747c0 2.8651-1.7793 7.7449-8.4472 7.7449h-4.6004v-15.49h4.4362c6.353 0 8.6115 4.0015 8.6115 7.7446zm-8.0929-11.717h-9.2707v23.424h9.3209c8.1027 0 12.468-6.0271 12.468-11.707 0-5.6544-3.9154-11.717-12.518-11.717z" fill="#858581"/>
</svg>
